<?xml version="1.0" standalone="no"?>
<!DOCTYPE svg PUBLIC "-//W3C//DTD SVG 20010904//EN"
 "http://www.w3.org/TR/2001/REC-SVG-20010904/DTD/svg10.dtd">
<svg version="1.0" xmlns="http://www.w3.org/2000/svg"
 width="211.000000pt" height="51.000000pt" viewBox="0 0 211.000000 51.000000"
 preserveAspectRatio="xMidYMid meet">

<g transform="translate(0.000000,51.000000) scale(0.100000,-0.100000)"
fill="#000000" stroke="none">
<path d="M175 469 l7 -40 -51 26 -51 26 -25 -27 c-14 -15 -25 -31 -25 -35 0
-5 19 -18 41 -30 46 -23 44 -29 -24 -54 -47 -18 -47 -18 -41 -54 4 -20 8 -38
10 -40 1 -2 57 14 123 35 l121 39 0 67 c0 77 -13 114 -44 122 -44 12 -48 8
-41 -35z"/>
<path d="M295 449 c8 -23 15 -65 15 -94 0 -50 4 -58 50 -112 27 -32 60 -82 72
-111 21 -51 22 -52 35 -30 18 32 16 46 -12 107 l-25 54 30 -6 30 -7 -15 38
c-26 62 -44 82 -70 82 -20 0 -27 6 -31 28 -7 37 -23 56 -61 75 l-32 17 14 -41z"/>
<path d="M750 437 c-39 -19 -60 -72 -60 -152 0 -80 21 -133 60 -152 37 -19
140 -17 140 2 0 12 -13 15 -56 15 -30 0 -64 4 -74 10 -54 29 -54 221 0 250 10
6 44 10 74 10 43 0 56 3 56 15 0 19 -103 21 -140 2z"/>
<path d="M984 348 c-31 -14 -44 -50 -44 -119 0 -50 4 -64 25 -84 31 -32 114
-36 144 -6 39 39 34 169 -10 204 -23 19 -82 22 -115 5z m112 -55 c21 -48 11
-117 -19 -138 -56 -40 -107 -3 -107 78 0 71 19 97 71 97 37 0 41 -3 55 -37z"/>
<path d="M1200 240 c0 -100 3 -120 15 -120 12 0 15 18 15 105 l0 105 48 0 c26
0 53 -5 60 -12 8 -8 12 -46 12 -105 0 -76 3 -93 15 -93 12 0 15 18 15 100 0
129 -9 140 -110 140 l-70 0 0 -120z"/>
<path d="M1680 345 c0 -11 13 -15 53 -15 57 0 77 -12 77 -46 0 -19 -7 -22 -60
-28 -64 -7 -90 -28 -90 -73 0 -44 33 -63 110 -63 l70 0 0 100 c0 126 -10 140
-100 140 -47 0 -60 -3 -60 -15z m130 -150 l0 -45 -54 0 c-41 0 -55 4 -60 16
-16 42 18 72 82 73 31 1 32 0 32 -44z"/>
<path d="M1421 342 c2 -5 22 -57 44 -115 36 -97 42 -107 65 -107 24 0 28 9 63
112 20 61 35 114 32 116 -15 16 -35 -19 -60 -102 -16 -53 -32 -96 -35 -96 -3
0 -21 44 -40 97 -25 71 -40 99 -54 101 -10 2 -17 0 -15 -6z"/>
<path d="M1893 338 c2 -7 19 -59 38 -115 18 -56 38 -104 45 -105 9 -2 8 -12
-4 -38 -13 -26 -24 -36 -45 -38 -35 -4 -35 -22 1 -22 33 0 45 8 61 38 20 38
110 286 106 290 -14 15 -34 -18 -64 -102 -19 -54 -37 -94 -41 -89 -4 4 -22 50
-40 101 -21 60 -38 92 -47 92 -8 0 -13 -6 -10 -12z"/>
<path d="M156 232 c-60 -20 -111 -42 -113 -48 -2 -6 8 -25 22 -42 l26 -31 50
19 c27 11 55 20 60 20 11 0 7 -45 -7 -93 -4 -13 4 -21 30 -32 55 -23 63 -20
71 28 12 73 20 76 51 19 16 -28 32 -52 35 -52 4 0 17 8 29 18 l23 19 -33 62
c-36 67 -105 151 -123 151 -7 -1 -61 -18 -121 -38z"/>
</g>
</svg>
